{
  "accessors": [
    {
      "bufferView": 2,
      "componentType": 5126,
      "count": 757,
      "max": [
        1.1742304563522339,
        5.441833019256592,
        4.186689853668213
      ],
      "min": [
        -3.974843978881836,
        0.0488247312605381,
        -5.783084392547607
      ],
      "type": "VEC3"
    },
    {
      "bufferView": 2,
      "byteOffset": 9084,
      "componentType": 5126,
      "count": 757,
      "max": [
        0.9992895722389221,
        0.9999997615814209,
        0.9855805039405823
      ],
      "min": [
        -0.9942883253097534,
        -0.9999998807907104,
        -0.9973834753036499
      ],
      "type": "VEC3"
    },
    {
      "bufferView": 1,
      "componentType": 5126,
      "count": 757,
      "max": [
        0.3279040455818176,
        0.9744117259979248
      ],
      "min": [
        0.01908242702484131,
        0.7025260925292969
      ],
      "type": "VEC2"
    },
    {
      "bufferView": 0,
      "componentType": 5125,
      "count": 2043,
      "type": "SCALAR"
    },
    {
      "bufferView": 2,
      "byteOffset": 18168,
      "componentType": 5126,
      "count": 1719,
      "max": [
        2.4637691974639893,
        5.278090476989746,
        3.12312912940979
      ],
      "min": [
        -2.4646317958831787,
        0.5698599219322205,
        -3.671823024749756
      ],
      "type": "VEC3"
    },
    {
      "bufferView": 2,
      "byteOffset": 38796,
      "componentType": 5126,
      "count": 1719,
      "max": [
        1.0,
        1.0,
        1.0
      ],
      "min": [
        -1.0,
        -1.0,
        -0.9999644160270691
      ],
      "type": "VEC3"
    },
    {
      "bufferView": 1,
      "byteOffset": 6056,
      "componentType": 5126,
      "count": 1719,
      "max": [
        0.988489031791687,
        0.8570616841316223
      ],
      "min": [
        0.0,
        0.0
      ],
      "type": "VEC2"
    },
    {
      "bufferView": 0,
      "byteOffset": 8172,
      "componentType": 5125,
      "count": 4341,
      "type": "SCALAR"
    },
    {
      "bufferView": 2,
      "byteOffset": 59424,
      "componentType": 5126,
      "count": 450,
      "max": [
        3.3520476818084717,
        6.313898086547852,
        4.929863452911377
      ],
      "min": [
        -1.5911537408828735,
        4.865327835083008,
        -4.808611869812012
      ],
      "type": "VEC3"
    },
    {
      "bufferView": 2,
      "byteOffset": 64824,
      "componentType": 5126,
      "count": 450,
      "max": [
        0.9999964237213135,
        0.9998289942741394,
        0.9996945261955261
      ],
      "min": [
        -0.9999963641166687,
        -0.9998799562454224,
        -0.9984533190727234
      ],
      "type": "VEC3"
    },
    {
      "bufferView": 1,
      "byteOffset": 19808,
      "componentType": 5126,
      "count": 450,
      "max": [
        0.9702438712120056,
        0.9859141111373901
      ],
      "min": [
        0.2822384536266327,
        0.025023341178894043
      ],
      "type": "VEC2"
    },
    {
      "bufferView": 0,
      "byteOffset": 25536,
      "componentType": 5125,
      "count": 732,
      "type": "SCALAR"
    },
    {
      "bufferView": 2,
      "byteOffset": 70224,
      "componentType": 5126,
      "count": 304,
      "max": [
        1.6161270141601563,
        0.9267334938049316,
        1.1102999448776245
      ],
      "min": [
        1.399025321006775,
        0.0028845667839050293,
        0.18645095825195313
      ],
      "type": "VEC3"
    },
    {
      "bufferView": 2,
      "byteOffset": 73872,
      "componentType": 5126,
      "count": 304,
      "max": [
        1.0,
        1.0,
        1.0
      ],
      "min": [
        -1.0,
        -1.0,
        -1.0
      ],
      "type": "VEC3"
    },
    {
      "bufferView": 1,
      "byteOffset": 23408,
      "componentType": 5126,
      "count": 304,
      "max": [
        0.3635105788707733,
        0.28276020288467407
      ],
      "min": [
        0.27983012795448303,
        0.1781589835882187
      ],
      "type": "VEC2"
    },
    {
      "bufferView": 0,
      "byteOffset": 28464,
      "componentType": 5125,
      "count": 468,
      "type": "SCALAR"
    },
    {
      "bufferView": 2,
      "byteOffset": 77520,
      "componentType": 5126,
      "count": 304,
      "max": [
        -1.403598666191101,
        0.9267334938049316,
        1.110299825668335
      ],
      "min": [
        -1.620700478553772,
        0.002884563058614731,
        0.1864510327577591
      ],
      "type": "VEC3"
    },
    {
      "bufferView": 2,
      "byteOffset": 81168,
      "componentType": 5126,
      "count": 304,
      "max": [
        1.0,
        1.0,
        1.0
      ],
      "min": [
        -1.0,
        -1.0,
        -1.0
      ],
      "type": "VEC3"
    },
    {
      "bufferView": 1,
      "byteOffset": 25840,
      "componentType": 5126,
      "count": 304,
      "max": [
        0.3635105788707733,
        0.28276020288467407
      ],
      "min": [
        0.27983012795448303,
        0.1781589835882187
      ],
      "type": "VEC2"
    },
    {
      "bufferView": 0,
      "byteOffset": 30336,
      "componentType": 5125,
      "count": 468,
      "type": "SCALAR"
    },
    {
      "bufferView": 2,
      "byteOffset": 84816,
      "componentType": 5126,
      "count": 304,
      "max": [
        0.5149746537208557,
        0.9267334938049316,
        -2.7405145168304443
      ],
      "min": [
        -0.4088742733001709,
        0.0028845667839050293,
        -2.9576163291931152
      ],
      "type": "VEC3"
    },
    {
      "bufferView": 2,
      "byteOffset": 88464,
      "componentType": 5126,
      "count": 304,
      "max": [
        1.0,
        1.0,
        1.0
      ],
      "min": [
        -1.0,
        -1.0,
        -1.0
      ],
      "type": "VEC3"
    },
    {
      "bufferView": 1,
      "byteOffset": 28272,
      "componentType": 5126,
      "count": 304,
      "max": [
        0.3635105788707733,
        0.28276020288467407
      ],
      "min": [
        0.27983012795448303,
        0.1781589835882187
      ],
      "type": "VEC2"
    },
    {
      "bufferView": 0,
      "byteOffset": 32208,
      "componentType": 5125,
      "count": 468,
      "type": "SCALAR"
    }
  ],
  "asset": {
    "extras": {
      "author": "saltoc in training (https://sketchfab.com/saltoc)",
      "license": "CC-BY-4.0 (http://creativecommons.org/licenses/by/4.0/)",
      "source": "https://sketchfab.com/3d-models/evil-vacuum-cleaner-robot-67e2d26d4f754e07877159bf2d744bce",
      "title": "Evil vacuum cleaner robot"
    },
    "generator": "Sketchfab-12.66.0",
    "version": "2.0"
  },
  "bufferViews": [
    {
      "buffer": 0,
      "byteLength": 34080,
      "name": "floatBufferViews",
      "target": 34963
    },
    {
      "buffer": 0,
      "byteLength": 30704,
      "byteOffset": 34080,
      "byteStride": 8,
      "name": "floatBufferViews",
      "target": 34962
    },
    {
      "buffer": 0,
      "byteLength": 92112,
      "byteOffset": 64784,
      "byteStride": 12,
      "name": "floatBufferViews",
      "target": 34962
    }
  ],
  "buffers": [
    {
      "byteLength": 156896,
      "uri": "scene.bin"
    }
  ],
  "images": [
    {
      "uri": "textures/blinn1_baseColor.png"
    },
    {
      "uri": "textures/blinn1_emissive.png"
    }
  ],
  "materials": [
    {
      "doubleSided": true,
      "emissiveFactor": [
        0.36,
        0.36,
        0.36
      ],
      "emissiveTexture": {
        "index": 1
      },
      "name": "blinn1",
      "pbrMetallicRoughness": {
        "baseColorTexture": {
          "index": 0
        },
        "metallicFactor": 0.0
      }
    }
  ],
  "meshes": [
    {
      "name": "Slurf_blinn1_0",
      "primitives": [
        {
          "attributes": {
            "NORMAL": 1,
            "POSITION": 0,
            "TEXCOORD_0": 2
          },
          "indices": 3,
          "material": 0,
          "mode": 4
        }
      ]
    },
    {
      "name": "Body_blinn1_0",
      "primitives": [
        {
          "attributes": {
            "NORMAL": 5,
            "POSITION": 4,
            "TEXCOORD_0": 6
          },
          "indices": 7,
          "material": 0,
          "mode": 4
        }
      ]
    },
    {
      "name": "Canon_blinn1_0",
      "primitives": [
        {
          "attributes": {
            "NORMAL": 9,
            "POSITION": 8,
            "TEXCOORD_0": 10
          },
          "indices": 11,
          "material": 0,
          "mode": 4
        }
      ]
    },
    {
      "name": "Wiel2_blinn1_0",
      "primitives": [
        {
          "attributes": {
            "NORMAL": 13,
            "POSITION": 12,
            "TEXCOORD_0": 14
          },
          "indices": 15,
          "material": 0,
          "mode": 4
        }
      ]
    },
    {
      "name": "Wiel1_blinn1_0",
      "primitives": [
        {
          "attributes": {
            "NORMAL": 17,
            "POSITION": 16,
            "TEXCOORD_0": 18
          },
          "indices": 19,
          "material": 0,
          "mode": 4
        }
      ]
    },
    {
      "name": "Wiel3_blinn1_0",
      "primitives": [
        {
          "attributes": {
            "NORMAL": 21,
            "POSITION": 20,
            "TEXCOORD_0": 22
          },
          "indices": 23,
          "material": 0,
          "mode": 4
        }
      ]
    }
  ],
  "nodes": [
    {
      "children": [
        1
      ],
      "matrix": [
        1.0,
        0.0,
        0.0,
        0.0,
        0.0,
        2.220446049250313e-16,
        -1.0,
        0.0,
        0.0,
        1.0,
        2.220446049250313e-16,
        0.0,
        0.0,
        0.0,
        0.0,
        1.0
      ],
      "name": "Sketchfab_model"
    },
    {
      "children": [
        2
      ],
      "matrix": [
        1.0,
        0.0,
        0.0,
        0.0,
        0.0,
        0.0,
        1.0,
        0.0,
        0.0,
        -1.0,
        0.0,
        0.0,
        0.0,
        0.0,
        0.0,
        1.0
      ],
      "name": "ba647885cfb348a6b5d10bd555c4fc1e.fbx"
    },
    {
      "children": [
        3,
        5,
        7,
        9,
        11,
        13
      ],
      "name": "RootNode"
    },
    {
      "children": [
        4
      ],
      "name": "Slurf"
    },
    {
      "mesh": 0,
      "name": "Slurf_blinn1_0"
    },
    {
      "children": [
        6
      ],
      "name": "Body"
    },
    {
      "mesh": 1,
      "name": "Body_blinn1_0"
    },
    {
      "children": [
        8
      ],
      "name": "Canon"
    },
    {
      "mesh": 2,
      "name": "Canon_blinn1_0"
    },
    {
      "children": [
        10
      ],
      "name": "Wiel2"
    },
    {
      "mesh": 3,
      "name": "Wiel2_blinn1_0"
    },
    {
      "children": [
        12
      ],
      "name": "Wiel1"
    },
    {
      "mesh": 4,
      "name": "Wiel1_blinn1_0"
    },
    {
      "children": [
        14
      ],
      "name": "Wiel3"
    },
    {
      "mesh": 5,
      "name": "Wiel3_blinn1_0"
    }
  ],
  "samplers": [
    {
      "magFilter": 9729,
      "minFilter": 9987,
      "wrapS": 10497,
      "wrapT": 10497
    }
  ],
  "scene": 0,
  "scenes": [
    {
      "name": "Sketchfab_Scene",
      "nodes": [
        0
      ]
    }
  ],
  "textures": [
    {
      "sampler": 0,
      "source": 0
    },
    {
      "sampler": 0,
      "source": 1
    }
  ]
}
