{
  "accessors": [
    {
      "bufferView": 2,
      "componentType": 5126,
      "count": 1807,
      "max": [
        514.04248046875,
        413.4579772949219,
        222.26528930664063
      ],
      "min": [
        -587.7860107421875,
        -409.5660400390625,
        88.17576599121094
      ],
      "type": "VEC3"
    },
    {
      "bufferView": 2,
      "byteOffset": 21684,
      "componentType": 5126,
      "count": 1807,
      "max": [
        1.0,
        1.0,
        1.0
      ],
      "min": [
        -0.9999999403953552,
        -1.0,
        -1.0
      ],
      "type": "VEC3"
    },
    {
      "bufferView": 1,
      "componentType": 5126,
      "count": 1807,
      "max": [
        2.0,
        0.1999509036540985
      ],
      "min": [
        0.7617189884185791,
        -1.0917969942092896
      ],
      "type": "VEC2"
    },
    {
      "bufferView": 1,
      "byteOffset": 14456,
      "componentType": 5126,
      "count": 1807,
      "max": [
        2.0,
        0.1999509036540985
      ],
      "min": [
        0.7617189884185791,
        -1.0917969942092896
      ],
      "type": "VEC2"
    },
    {
      "bufferView": 0,
      "componentType": 5125,
      "count": 4920,
      "type": "SCALAR"
    },
    {
      "bufferView": 2,
      "byteOffset": 43368,
      "componentType": 5126,
      "count": 642,
      "max": [
        258.9233093261719,
        98.70409393310547,
        83.96759033203125
      ],
      "min": [
        -2.2129950523376465,
        -124.92230987548828,
        0.5875877141952515
      ],
      "type": "VEC3"
    },
    {
      "bufferView": 2,
      "byteOffset": 51072,
      "componentType": 5126,
      "count": 642,
      "max": [
        0.8380782604217529,
        0.8681625127792358,
        1.0
      ],
      "min": [
        -0.9960449934005737,
        -0.9999999403953552,
        -0.9995937943458557
      ],
      "type": "VEC3"
    },
    {
      "bufferView": 1,
      "byteOffset": 28912,
      "componentType": 5126,
      "count": 642,
      "max": [
        7.904803276062012,
        0.8737007975578308
      ],
      "min": [
        3.0727172998012975e-05,
        -0.9946290254592896
      ],
      "type": "VEC2"
    },
    {
      "bufferView": 1,
      "byteOffset": 34048,
      "componentType": 5126,
      "count": 642,
      "max": [
        7.904803276062012,
        0.8737007975578308
      ],
      "min": [
        3.0727172998012975e-05,
        -0.9946290254592896
      ],
      "type": "VEC2"
    },
    {
      "bufferView": 0,
      "byteOffset": 19680,
      "componentType": 5125,
      "count": 2526,
      "type": "SCALAR"
    },
    {
      "bufferView": 2,
      "byteOffset": 58776,
      "componentType": 5126,
      "count": 20,
      "max": [
        602.9703979492188,
        433.7403869628906,
        0.28525683283805847
      ],
      "min": [
        -601.6975708007813,
        -434.72711181640625,
        0.2849287688732147
      ],
      "type": "VEC3"
    },
    {
      "bufferView": 2,
      "byteOffset": 59016,
      "componentType": 5126,
      "count": 20,
      "max": [
        1.4381967048393562e-06,
        -1.6290876203584048e-07,
        1.0
      ],
      "min": [
        -3.0584865271521267e-06,
        -1.7775224705474102e-06,
        0.9999999403953552
      ],
      "type": "VEC3"
    },
    {
      "bufferView": 1,
      "byteOffset": 39184,
      "componentType": 5126,
      "count": 20,
      "max": [
        5.0,
        2.0
      ],
      "min": [
        -0.3745120167732239,
        -2.938965082168579
      ],
      "type": "VEC2"
    },
    {
      "bufferView": 1,
      "byteOffset": 39344,
      "componentType": 5126,
      "count": 20,
      "max": [
        5.0,
        2.0
      ],
      "min": [
        -0.3745120167732239,
        -2.938965082168579
      ],
      "type": "VEC2"
    },
    {
      "bufferView": 0,
      "byteOffset": 29784,
      "componentType": 5125,
      "count": 30,
      "type": "SCALAR"
    },
    {
      "bufferView": 2,
      "byteOffset": 59256,
      "componentType": 5126,
      "count": 297,
      "max": [
        272.8533020019531,
        171.2271728515625,
        226.77552795410156
      ],
      "min": [
        54.91310119628906,
        -145.77493286132813,
        1.6855729818344116
      ],
      "type": "VEC3"
    },
    {
      "bufferView": 2,
      "byteOffset": 62820,
      "componentType": 5126,
      "count": 297,
      "max": [
        1.0,
        1.0,
        0.28613346815109253
      ],
      "min": [
        -1.0,
        -1.0,
        -0.05764244124293327
      ],
      "type": "VEC3"
    },
    {
      "bufferView": 1,
      "byteOffset": 39504,
      "componentType": 5126,
      "count": 297,
      "max": [
        0.9990230202674866,
        0.00013490451965481043
      ],
      "min": [
        -8.911475788409007e-07,
        -1.0
      ],
      "type": "VEC2"
    },
    {
      "bufferView": 1,
      "byteOffset": 41880,
      "componentType": 5126,
      "count": 297,
      "max": [
        0.9990230202674866,
        0.00013490451965481043
      ],
      "min": [
        -8.911475788409007e-07,
        -1.0
      ],
      "type": "VEC2"
    },
    {
      "bufferView": 0,
      "byteOffset": 29904,
      "componentType": 5125,
      "count": 618,
      "type": "SCALAR"
    },
    {
      "bufferView": 2,
      "byteOffset": 66384,
      "componentType": 5126,
      "count": 753,
      "max": [
        477.7027893066406,
        160.88168334960938,
        224.89019775390625
      ],
      "min": [
        -309.9245910644531,
        -121.73933410644531,
        88.17559051513672
      ],
      "type": "VEC3"
    },
    {
      "bufferView": 2,
      "byteOffset": 75420,
      "componentType": 5126,
      "count": 753,
      "max": [
        1.0,
        1.0,
        1.0
      ],
      "min": [
        -1.0,
        -1.0,
        -0.9658053517341614
      ],
      "type": "VEC3"
    },
    {
      "bufferView": 1,
      "byteOffset": 44256,
      "componentType": 5126,
      "count": 753,
      "max": [
        180.8907012939453,
        44.19498062133789
      ],
      "min": [
        -187.67996215820313,
        -1.2988280057907104
      ],
      "type": "VEC2"
    },
    {
      "bufferView": 1,
      "byteOffset": 50280,
      "componentType": 5126,
      "count": 753,
      "max": [
        180.8907012939453,
        44.19498062133789
      ],
      "min": [
        -187.67996215820313,
        -1.2988280057907104
      ],
      "type": "VEC2"
    },
    {
      "bufferView": 0,
      "byteOffset": 32376,
      "componentType": 5125,
      "count": 1428,
      "type": "SCALAR"
    },
    {
      "bufferView": 2,
      "byteOffset": 84456,
      "componentType": 5126,
      "count": 620,
      "max": [
        508.0613098144531,
        125.61848449707031,
        267.00555419921875
      ],
      "min": [
        -113.06950378417969,
        -439.1906433105469,
        0.2850237190723419
      ],
      "type": "VEC3"
    },
    {
      "bufferView": 2,
      "byteOffset": 91896,
      "componentType": 5126,
      "count": 620,
      "max": [
        1.0,
        1.0,
        1.0
      ],
      "min": [
        -1.0,
        -1.0,
        -1.0
      ],
      "type": "VEC3"
    },
    {
      "bufferView": 1,
      "byteOffset": 56304,
      "componentType": 5126,
      "count": 620,
      "max": [
        1.0,
        -3.099999958067201e-05
      ],
      "min": [
        -6.423578270187136e-06,
        -1.0
      ],
      "type": "VEC2"
    },
    {
      "bufferView": 1,
      "byteOffset": 61264,
      "componentType": 5126,
      "count": 620,
      "max": [
        1.0,
        -3.099999958067201e-05
      ],
      "min": [
        -6.423578270187136e-06,
        -1.0
      ],
      "type": "VEC2"
    },
    {
      "bufferView": 0,
      "byteOffset": 38088,
      "componentType": 5125,
      "count": 1185,
      "type": "SCALAR"
    },
    {
      "bufferView": 2,
      "byteOffset": 99336,
      "componentType": 5126,
      "count": 6383,
      "max": [
        606.9174194335938,
        431.0994873046875,
        240.0770721435547
      ],
      "min": [
        -353.3919982910156,
        -420.48895263671875,
        -0.7386532425880432
      ],
      "type": "VEC3"
    },
    {
      "bufferView": 2,
      "byteOffset": 175932,
      "componentType": 5126,
      "count": 6383,
      "max": [
        1.0,
        1.0,
        1.0
      ],
      "min": [
        -1.0,
        -1.0,
        -1.0
      ],
      "type": "VEC3"
    },
    {
      "bufferView": 1,
      "byteOffset": 66224,
      "componentType": 5126,
      "count": 6383,
      "max": [
        235.76629638671875,
        173.6884002685547
      ],
      "min": [
        -241.6836700439453,
        -29.692373275756836
      ],
      "type": "VEC2"
    },
    {
      "bufferView": 1,
      "byteOffset": 117288,
      "componentType": 5126,
      "count": 6383,
      "max": [
        235.76629638671875,
        173.6884002685547
      ],
      "min": [
        -241.6836700439453,
        -29.692373275756836
      ],
      "type": "VEC2"
    },
    {
      "bufferView": 0,
      "byteOffset": 42828,
      "componentType": 5125,
      "count": 15243,
      "type": "SCALAR"
    },
    {
      "bufferView": 2,
      "byteOffset": 252528,
      "componentType": 5126,
      "count": 121,
      "max": [
        -239.57640075683594,
        -114.9609146118164,
        165.3634796142578
      ],
      "min": [
        -297.8945007324219,
        -159.44541931152344,
        106.14107513427734
      ],
      "type": "VEC3"
    },
    {
      "bufferView": 2,
      "byteOffset": 253980,
      "componentType": 5126,
      "count": 121,
      "max": [
        0.9965965747833252,
        0.9966053366661072,
        0.2704235017299652
      ],
      "min": [
        -0.8660415410995483,
        -0.9664369225502014,
        -0.8333563804626465
      ],
      "type": "VEC3"
    },
    {
      "bufferView": 1,
      "byteOffset": 168352,
      "componentType": 5126,
      "count": 121,
      "max": [
        1.9990513324737549,
        0.00015416814130730927
      ],
      "min": [
        -3.022780583705753e-05,
        -1.0000760555267334
      ],
      "type": "VEC2"
    },
    {
      "bufferView": 1,
      "byteOffset": 169320,
      "componentType": 5126,
      "count": 121,
      "max": [
        1.9990513324737549,
        0.00015416814130730927
      ],
      "min": [
        -3.022780583705753e-05,
        -1.0000760555267334
      ],
      "type": "VEC2"
    },
    {
      "bufferView": 0,
      "byteOffset": 103800,
      "componentType": 5125,
      "count": 249,
      "type": "SCALAR"
    },
    {
      "bufferView": 2,
      "byteOffset": 255432,
      "componentType": 5126,
      "count": 1554,
      "max": [
        508.5270080566406,
        292.9197692871094,
        235.88729858398438
      ],
      "min": [
        -535.1312255859375,
        -226.21673583984375,
        187.7804718017578
      ],
      "type": "VEC3"
    },
    {
      "bufferView": 2,
      "byteOffset": 274080,
      "componentType": 5126,
      "count": 1554,
      "max": [
        1.0,
        1.0,
        0.42446261644363403
      ],
      "min": [
        -1.0,
        -1.0,
        -0.6825567483901978
      ],
      "type": "VEC3"
    },
    {
      "bufferView": 1,
      "byteOffset": 170288,
      "componentType": 5126,
      "count": 1554,
      "max": [
        0.9962610006332397,
        -3.099999958067201e-05
      ],
      "min": [
        0.5032663345336914,
        -1.0005515813827515
      ],
      "type": "VEC2"
    },
    {
      "bufferView": 1,
      "byteOffset": 182720,
      "componentType": 5126,
      "count": 1554,
      "max": [
        0.9962610006332397,
        -3.099999958067201e-05
      ],
      "min": [
        0.5032663345336914,
        -1.0005515813827515
      ],
      "type": "VEC2"
    },
    {
      "bufferView": 0,
      "byteOffset": 104796,
      "componentType": 5125,
      "count": 4320,
      "type": "SCALAR"
    },
    {
      "bufferView": 2,
      "byteOffset": 292728,
      "componentType": 5126,
      "count": 1518,
      "max": [
        589.3842163085938,
        438.9600524902344,
        526.7387084960938
      ],
      "min": [
        -606.9174194335938,
        -439.9467468261719,
        246.07017517089844
      ],
      "type": "VEC3"
    },
    {
      "bufferView": 2,
      "byteOffset": 310944,
      "componentType": 5126,
      "count": 1518,
      "max": [
        1.0,
        1.0,
        0.5547208189964294
      ],
      "min": [
        -1.0,
        -1.0,
        -1.0
      ],
      "type": "VEC3"
    },
    {
      "bufferView": 1,
      "byteOffset": 195152,
      "componentType": 5126,
      "count": 1518,
      "max": [
        3.0000081062316895,
        0.8706268072128296
      ],
      "min": [
        -0.9316440224647522,
        -1.023561716079712
      ],
      "type": "VEC2"
    },
    {
      "bufferView": 1,
      "byteOffset": 207296,
      "componentType": 5126,
      "count": 1518,
      "max": [
        3.0000081062316895,
        0.8706268072128296
      ],
      "min": [
        -0.9316440224647522,
        -1.023561716079712
      ],
      "type": "VEC2"
    },
    {
      "bufferView": 0,
      "byteOffset": 122076,
      "componentType": 5125,
      "count": 2592,
      "type": "SCALAR"
    },
    {
      "bufferView": 2,
      "byteOffset": 329160,
      "componentType": 5126,
      "count": 2594,
      "max": [
        515.5908813476563,
        438.9601745605469,
        523.0762939453125
      ],
      "min": [
        -398.4993896484375,
        -439.94915771484375,
        140.74807739257813
      ],
      "type": "VEC3"
    },
    {
      "bufferView": 2,
      "byteOffset": 360288,
      "componentType": 5126,
      "count": 2594,
      "max": [
        1.0,
        1.0,
        1.0
      ],
      "min": [
        -1.0,
        -1.0,
        -1.0
      ],
      "type": "VEC3"
    },
    {
      "bufferView": 1,
      "byteOffset": 219440,
      "componentType": 5126,
      "count": 2594,
      "max": [
        200.0850830078125,
        172.76499938964844
      ],
      "min": [
        -153.93154907226563,
        -170.91448974609375
      ],
      "type": "VEC2"
    },
    {
      "bufferView": 1,
      "byteOffset": 240192,
      "componentType": 5126,
      "count": 2594,
      "max": [
        200.0850830078125,
        172.76499938964844
      ],
      "min": [
        -153.93154907226563,
        -170.91448974609375
      ],
      "type": "VEC2"
    },
    {
      "bufferView": 0,
      "byteOffset": 132444,
      "componentType": 5125,
      "count": 4425,
      "type": "SCALAR"
    },
    {
      "bufferView": 2,
      "byteOffset": 391416,
      "componentType": 5126,
      "count": 453,
      "max": [
        -29.078100204467773,
        419.517578125,
        134.3541717529297
      ],
      "min": [
        -512.6654052734375,
        129.3601837158203,
        108.3148193359375
      ],
      "type": "VEC3"
    },
    {
      "bufferView": 2,
      "byteOffset": 396852,
      "componentType": 5126,
      "count": 453,
      "max": [
        0.9960350394248962,
        1.0,
        0.4365736246109009
      ],
      "min": [
        -0.9960343837738037,
        -1.0,
        -0.4294712543487549
      ],
      "type": "VEC3"
    },
    {
      "bufferView": 1,
      "byteOffset": 260944,
      "componentType": 5126,
      "count": 453,
      "max": [
        2.000002145767212,
        1.0214840173721313
      ],
      "min": [
        3.099547029705718e-05,
        -0.9962600469589233
      ],
      "type": "VEC2"
    },
    {
      "bufferView": 1,
      "byteOffset": 264568,
      "componentType": 5126,
      "count": 453,
      "max": [
        2.000002145767212,
        1.0214840173721313
      ],
      "min": [
        3.099547029705718e-05,
        -0.9962600469589233
      ],
      "type": "VEC2"
    },
    {
      "bufferView": 0,
      "byteOffset": 150144,
      "componentType": 5125,
      "count": 1728,
      "type": "SCALAR"
    },
    {
      "bufferView": 2,
      "byteOffset": 402288,
      "componentType": 5126,
      "count": 94,
      "max": [
        589.3842163085938,
        438.9601745605469,
        263.9569396972656
      ],
      "min": [
        -606.9171142578125,
        -439.9467468261719,
        78.8956298828125
      ],
      "type": "VEC3"
    },
    {
      "bufferView": 2,
      "byteOffset": 403416,
      "componentType": 5126,
      "count": 94,
      "max": [
        1.0,
        1.0,
        2.8033907710778294e-06
      ],
      "min": [
        -1.0,
        -1.0,
        -1.0
      ],
      "type": "VEC3"
    },
    {
      "bufferView": 1,
      "byteOffset": 268192,
      "componentType": 5126,
      "count": 94,
      "max": [
        3.111327886581421,
        103.92001342773438
      ],
      "min": [
        -167.67051696777344,
        -1.0000009536743164
      ],
      "type": "VEC2"
    },
    {
      "bufferView": 1,
      "byteOffset": 268944,
      "componentType": 5126,
      "count": 94,
      "max": [
        3.111327886581421,
        103.92001342773438
      ],
      "min": [
        -167.67051696777344,
        -1.0000009536743164
      ],
      "type": "VEC2"
    },
    {
      "bufferView": 0,
      "byteOffset": 157056,
      "componentType": 5125,
      "count": 150,
      "type": "SCALAR"
    },
    {
      "bufferView": 2,
      "byteOffset": 404544,
      "componentType": 5126,
      "count": 24,
      "max": [
        515.5911865234375,
        169.46144104003906,
        523.0762939453125
      ],
      "min": [
        -322.4679870605469,
        -434.1215515136719,
        368.6408386230469
      ],
      "type": "VEC3"
    },
    {
      "bufferView": 2,
      "byteOffset": 404832,
      "componentType": 5126,
      "count": 24,
      "max": [
        1.0,
        5.718160537071526e-06,
        3.809318059211364e-06
      ],
      "min": [
        -1.0,
        -6.597878382308409e-06,
        -2.6665131827030564e-06
      ],
      "type": "VEC3"
    },
    {
      "bufferView": 1,
      "byteOffset": 269696,
      "componentType": 5126,
      "count": 24,
      "max": [
        1.0009756088256836,
        0.34960898756980896
      ],
      "min": [
        0.05062896013259888,
        -2.002549409866333
      ],
      "type": "VEC2"
    },
    {
      "bufferView": 1,
      "byteOffset": 269888,
      "componentType": 5126,
      "count": 24,
      "max": [
        1.0009756088256836,
        0.34960898756980896
      ],
      "min": [
        0.05062896013259888,
        -2.002549409866333
      ],
      "type": "VEC2"
    },
    {
      "bufferView": 0,
      "byteOffset": 157656,
      "componentType": 5125,
      "count": 36,
      "type": "SCALAR"
    },
    {
      "bufferView": 2,
      "byteOffset": 405120,
      "componentType": 5126,
      "count": 2425,
      "max": [
        -269.85400390625,
        -122.47112274169922,
        151.5094451904297
      ],
      "min": [
        -592.200927734375,
        -414.34112548828125,
        88.17547607421875
      ],
      "type": "VEC3"
    },
    {
      "bufferView": 2,
      "byteOffset": 434220,
      "componentType": 5126,
      "count": 2425,
      "max": [
        1.0,
        1.0,
        1.0
      ],
      "min": [
        -1.0,
        -1.0,
        -1.0
      ],
      "type": "VEC3"
    },
    {
      "bufferView": 1,
      "byteOffset": 270080,
      "componentType": 5126,
      "count": 2425,
      "max": [
        3.234375,
        2.884766101837158
      ],
      "min": [
        -2.734375,
        -4.359627723693848
      ],
      "type": "VEC2"
    },
    {
      "bufferView": 1,
      "byteOffset": 289480,
      "componentType": 5126,
      "count": 2425,
      "max": [
        3.234375,
        2.884766101837158
      ],
      "min": [
        -2.734375,
        -4.359627723693848
      ],
      "type": "VEC2"
    },
    {
      "bufferView": 0,
      "byteOffset": 157800,
      "componentType": 5125,
      "count": 7194,
      "type": "SCALAR"
    },
    {
      "bufferView": 2,
      "byteOffset": 463320,
      "componentType": 5126,
      "count": 687,
      "max": [
        231.71429443359375,
        147.24148559570313,
        224.89019775390625
      ],
      "min": [
        -309.9245910644531,
        -121.73933410644531,
        61.011802673339844
      ],
      "type": "VEC3"
    },
    {
      "bufferView": 2,
      "byteOffset": 471564,
      "componentType": 5126,
      "count": 687,
      "max": [
        1.0,
        1.0,
        1.0
      ],
      "min": [
        -0.9985813498497009,
        -1.0,
        -1.0
      ],
      "type": "VEC3"
    },
    {
      "bufferView": 1,
      "byteOffset": 308880,
      "componentType": 5126,
      "count": 687,
      "max": [
        44.495628356933594,
        56.208187103271484
      ],
      "min": [
        -55.55860900878906,
        -1.0000317096710205
      ],
      "type": "VEC2"
    },
    {
      "bufferView": 1,
      "byteOffset": 314376,
      "componentType": 5126,
      "count": 687,
      "max": [
        44.495628356933594,
        56.208187103271484
      ],
      "min": [
        -55.55860900878906,
        -1.0000317096710205
      ],
      "type": "VEC2"
    },
    {
      "bufferView": 0,
      "byteOffset": 186576,
      "componentType": 5125,
      "count": 1260,
      "type": "SCALAR"
    },
    {
      "bufferView": 2,
      "byteOffset": 479808,
      "componentType": 5126,
      "count": 9508,
      "max": [
        492.935791015625,
        434.0733947753906,
        284.18011474609375
      ],
      "min": [
        -602.1981811523438,
        -435.12969970703125,
        0.2849607467651367
      ],
      "type": "VEC3"
    },
    {
      "bufferView": 2,
      "byteOffset": 593904,
      "componentType": 5126,
      "count": 9508,
      "max": [
        1.0,
        1.0,
        1.0
      ],
      "min": [
        -1.0,
        -1.0,
        -1.0
      ],
      "type": "VEC3"
    },
    {
      "bufferView": 1,
      "byteOffset": 319872,
      "componentType": 5126,
      "count": 9508,
      "max": [
        154.20999145507813,
        150.10374450683594
      ],
      "min": [
        -156.615234375,
        -94.0517578125
      ],
      "type": "VEC2"
    },
    {
      "bufferView": 1,
      "byteOffset": 395936,
      "componentType": 5126,
      "count": 9508,
      "max": [
        154.20999145507813,
        150.10374450683594
      ],
      "min": [
        -156.615234375,
        -94.0517578125
      ],
      "type": "VEC2"
    },
    {
      "bufferView": 0,
      "byteOffset": 191616,
      "componentType": 5125,
      "count": 17454,
      "type": "SCALAR"
    },
    {
      "bufferView": 2,
      "byteOffset": 708000,
      "componentType": 5126,
      "count": 8,
      "max": [
        288.525390625,
        -157.0426025390625,
        1.1639693975448608
      ],
      "min": [
        -493.6177062988281,
        -431.6205139160156,
        1.1639246940612793
      ],
      "type": "VEC3"
    },
    {
      "bufferView": 2,
      "byteOffset": 708096,
      "componentType": 5126,
      "count": 8,
      "max": [
        8.70193431201649e-11,
        -1.6275642167329352e-07,
        1.0
      ],
      "min": [
        7.513326072405846e-11,
        -1.6293718374527089e-07,
        1.0
      ],
      "type": "VEC3"
    },
    {
      "bufferView": 1,
      "byteOffset": 472000,
      "componentType": 5126,
      "count": 8,
      "max": [
        1.0,
        -0.5498049855232239
      ],
      "min": [
        3.00809715554351e-05,
        -1.0
      ],
      "type": "VEC2"
    },
    {
      "bufferView": 1,
      "byteOffset": 472064,
      "componentType": 5126,
      "count": 8,
      "max": [
        1.0,
        -0.5498049855232239
      ],
      "min": [
        3.00809715554351e-05,
        -1.0
      ],
      "type": "VEC2"
    },
    {
      "bufferView": 0,
      "byteOffset": 261432,
      "componentType": 5125,
      "count": 12,
      "type": "SCALAR"
    },
    {
      "bufferView": 2,
      "byteOffset": 708192,
      "componentType": 5126,
      "count": 1229,
      "max": [
        446.0022888183594,
        310.88427734375,
        194.66392517089844
      ],
      "min": [
        -584.5336303710938,
        -338.3701171875,
        88.02352142333984
      ],
      "type": "VEC3"
    },
    {
      "bufferView": 2,
      "byteOffset": 722940,
      "componentType": 5126,
      "count": 1229,
      "max": [
        0.9998074769973755,
        0.9999167323112488,
        1.0
      ],
      "min": [
        -0.9998059868812561,
        -0.9986062049865723,
        -0.9316797256469727
      ],
      "type": "VEC3"
    },
    {
      "bufferView": 1,
      "byteOffset": 472128,
      "componentType": 5126,
      "count": 1229,
      "max": [
        1.0020442008972168,
        0.001499247970059514
      ],
      "min": [
        -0.005614347755908966,
        -1.0015949010849
      ],
      "type": "VEC2"
    },
    {
      "bufferView": 1,
      "byteOffset": 481960,
      "componentType": 5126,
      "count": 1229,
      "max": [
        1.0020442008972168,
        0.001499247970059514
      ],
      "min": [
        -0.005614347755908966,
        -1.0015949010849
      ],
      "type": "VEC2"
    },
    {
      "bufferView": 0,
      "byteOffset": 261480,
      "componentType": 5125,
      "count": 2400,
      "type": "SCALAR"
    },
    {
      "bufferView": 2,
      "byteOffset": 737688,
      "componentType": 5126,
      "count": 4411,
      "max": [
        602.9705810546875,
        438.9599609375,
        246.0708465576172
      ],
      "min": [
        -606.9171142578125,
        -439.9465026855469,
        0.2849287688732147
      ],
      "type": "VEC3"
    },
    {
      "bufferView": 2,
      "byteOffset": 790620,
      "componentType": 5126,
      "count": 4411,
      "max": [
        1.0,
        1.0,
        1.0
      ],
      "min": [
        -1.0,
        -1.0,
        -1.0
      ],
      "type": "VEC3"
    },
    {
      "bufferView": 1,
      "byteOffset": 491792,
      "componentType": 5126,
      "count": 4411,
      "max": [
        3.755861282348633,
        -0.4999935030937195
      ],
      "min": [
        1.9621003866195679,
        -2.0
      ],
      "type": "VEC2"
    },
    {
      "bufferView": 1,
      "byteOffset": 527080,
      "componentType": 5126,
      "count": 4411,
      "max": [
        3.755861282348633,
        -0.4999935030937195
      ],
      "min": [
        1.9621003866195679,
        -2.0
      ],
      "type": "VEC2"
    },
    {
      "bufferView": 0,
      "byteOffset": 271080,
      "componentType": 5125,
      "count": 9879,
      "type": "SCALAR"
    },
    {
      "bufferView": 2,
      "byteOffset": 843552,
      "componentType": 5126,
      "count": 1419,
      "max": [
        514.0919799804688,
        439.9836730957031,
        237.3549346923828
      ],
      "min": [
        -540.5137939453125,
        -439.9837341308594,
        0.2849723696708679
      ],
      "type": "VEC3"
    },
    {
      "bufferView": 2,
      "byteOffset": 860580,
      "componentType": 5126,
      "count": 1419,
      "max": [
        1.0,
        1.0,
        1.0
      ],
      "min": [
        -1.0,
        -1.0,
        -1.0
      ],
      "type": "VEC3"
    },
    {
      "bufferView": 1,
      "byteOffset": 562368,
      "componentType": 5126,
      "count": 1419,
      "max": [
        1.9873050451278687,
        1.3076201677322388
      ],
      "min": [
        -0.1359899342060089,
        -1.4333760738372803
      ],
      "type": "VEC2"
    },
    {
      "bufferView": 1,
      "byteOffset": 573720,
      "componentType": 5126,
      "count": 1419,
      "max": [
        1.9873050451278687,
        1.3076201677322388
      ],
      "min": [
        -0.1359899342060089,
        -1.4333760738372803
      ],
      "type": "VEC2"
    },
    {
      "bufferView": 0,
      "byteOffset": 310596,
      "componentType": 5125,
      "count": 2808,
      "type": "SCALAR"
    },
    {
      "bufferView": 2,
      "byteOffset": 877608,
      "componentType": 5126,
      "count": 356,
      "max": [
        599.8327026367188,
        422.1305847167969,
        240.07705688476563
      ],
      "min": [
        -346.6123962402344,
        -412.7041320800781,
        -0.7386433482170105
      ],
      "type": "VEC3"
    },
    {
      "bufferView": 2,
      "byteOffset": 881880,
      "componentType": 5126,
      "count": 356,
      "max": [
        0.8826496005058289,
        1.0,
        0.9992213845252991
      ],
      "min": [
        -0.8826459646224976,
        -1.0,
        -0.9999598264694214
      ],
      "type": "VEC3"
    },
    {
      "bufferView": 1,
      "byteOffset": 585072,
      "componentType": 5126,
      "count": 356,
      "max": [
        235.76629638671875,
        173.6884002685547
      ],
      "min": [
        0.033966001123189926,
        -0.23706099390983582
      ],
      "type": "VEC2"
    },
    {
      "bufferView": 1,
      "byteOffset": 587920,
      "componentType": 5126,
      "count": 356,
      "max": [
        235.76629638671875,
        173.6884002685547
      ],
      "min": [
        0.033966001123189926,
        -0.23706099390983582
      ],
      "type": "VEC2"
    },
    {
      "bufferView": 0,
      "byteOffset": 321828,
      "componentType": 5125,
      "count": 540,
      "type": "SCALAR"
    },
    {
      "bufferView": 2,
      "byteOffset": 886152,
      "componentType": 5126,
      "count": 101,
      "max": [
        -239.57640075683594,
        -114.9609146118164,
        165.3634796142578
      ],
      "min": [
        -297.8945007324219,
        -159.44541931152344,
        106.14107513427734
      ],
      "type": "VEC3"
    },
    {
      "bufferView": 2,
      "byteOffset": 887364,
      "componentType": 5126,
      "count": 101,
      "max": [
        0.9965965747833252,
        0.9966053366661072,
        0.2704235017299652
      ],
      "min": [
        -0.8660415410995483,
        -0.9664369225502014,
        -0.8333563804626465
      ],
      "type": "VEC3"
    },
    {
      "bufferView": 1,
      "byteOffset": 590768,
      "componentType": 5126,
      "count": 101,
      "max": [
        0.713867723941803,
        0.00015416814130730927
      ],
      "min": [
        -3.022780583705753e-05,
        -1.0000489950180054
      ],
      "type": "VEC2"
    },
    {
      "bufferView": 1,
      "byteOffset": 591576,
      "componentType": 5126,
      "count": 101,
      "max": [
        0.713867723941803,
        0.00015416814130730927
      ],
      "min": [
        -3.022780583705753e-05,
        -1.0000489950180054
      ],
      "type": "VEC2"
    },
    {
      "bufferView": 0,
      "byteOffset": 323988,
      "componentType": 5125,
      "count": 213,
      "type": "SCALAR"
    },
    {
      "bufferView": 2,
      "byteOffset": 888576,
      "componentType": 5126,
      "count": 62597,
      "max": [
        606.9174194335938,
        439.9836730957031,
        526.7387084960938
      ],
      "min": [
        -606.9174194335938,
        -439.9837341308594,
        -0.7386532425880432
      ],
      "type": "VEC3"
    },
    {
      "bufferView": 2,
      "byteOffset": 1639740,
      "componentType": 5126,
      "count": 62597,
      "max": [
        1.0,
        1.0,
        1.0
      ],
      "min": [
        -1.0,
        -1.0,
        -1.0
      ],
      "type": "VEC3"
    },
    {
      "bufferView": 1,
      "byteOffset": 592384,
      "componentType": 5126,
      "count": 62597,
      "max": [
        288.30694580078125,
        283.0938415527344
      ],
      "min": [
        -277.0992126464844,
        -264.6549377441406
      ],
      "type": "VEC2"
    },
    {
      "bufferView": 1,
      "byteOffset": 1093160,
      "componentType": 5126,
      "count": 62597,
      "max": [
        288.30694580078125,
        283.0938415527344
      ],
      "min": [
        -277.0992126464844,
        -264.6549377441406
      ],
      "type": "VEC2"
    },
    {
      "bufferView": 0,
      "byteOffset": 324840,
      "componentType": 5125,
      "count": 79704,
      "type": "SCALAR"
    }
  ],
  "asset": {
    "extras": {
      "author": "katydid (https://sketchfab.com/Katydid.)",
      "license": "SKETCHFAB Standard (https://sketchfab.com/licenses)",
      "source": "https://sketchfab.com/3d-models/abandoned-mansion-bedroom-3a3f5aa2c04840bf8437eec822ec5481",
      "title": "Abandoned mansion bedroom"
    },
    "generator": "Sketchfab-16.74.0",
    "version": "2.0"
  },
  "bufferViews": [
    {
      "buffer": 0,
      "byteLength": 643656,
      "name": "floatBufferViews",
      "target": 34963
    },
    {
      "buffer": 0,
      "byteLength": 1593936,
      "byteOffset": 643656,
      "byteStride": 8,
      "name": "floatBufferViews",
      "target": 34962
    },
    {
      "buffer": 0,
      "byteLength": 2390904,
      "byteOffset": 2237592,
      "byteStride": 12,
      "name": "floatBufferViews",
      "target": 34962
    }
  ],
  "buffers": [
    {
      "byteLength": 4628496,
      "uri": "scene.bin"
    }
  ],
  "images": [
    {
      "uri": "textures/TextureMaterial_baseColor.png"
    },
    {
      "uri": "textures/TextureMaterial_1_baseColor.png"
    },
    {
      "uri": "textures/TextureMaterial_10_baseColor.png"
    },
    {
      "uri": "textures/TextureMaterial_11_baseColor.png"
    },
    {
      "uri": "textures/TextureMaterial_12_baseColor.png"
    },
    {
      "uri": "textures/TextureMaterial_13_baseColor.png"
    },
    {
      "uri": "textures/TextureMaterial_14_baseColor.png"
    },
    {
      "uri": "textures/TextureMaterial_15_baseColor.png"
    },
    {
      "uri": "textures/TextureMaterial_16_baseColor.png"
    },
    {
      "uri": "textures/TextureMaterial_17_baseColor.png"
    },
    {
      "uri": "textures/TextureMaterial_18_baseColor.png"
    },
    {
      "uri": "textures/TextureMaterial_19_baseColor.png"
    },
    {
      "uri": "textures/TextureMaterial_2_baseColor.png"
    },
    {
      "uri": "textures/TextureMaterial_20_baseColor.png"
    },
    {
      "uri": "textures/TextureMaterial_3_baseColor.png"
    },
    {
      "uri": "textures/TextureMaterial_4_baseColor.png"
    },
    {
      "uri": "textures/TextureMaterial_5_baseColor.png"
    },
    {
      "uri": "textures/TextureMaterial_6_baseColor.png"
    },
    {
      "uri": "textures/TextureMaterial_7_baseColor.png"
    },
    {
      "uri": "textures/TextureMaterial_8_baseColor.png"
    },
    {
      "uri": "textures/TextureMaterial_9_baseColor.png"
    },
    {
      "uri": "textures/TextureMaterial_21_baseColor.png"
    }
  ],
  "materials": [
    {
      "name": "TextureMaterial",
      "pbrMetallicRoughness": {
        "baseColorTexture": {
          "index": 0
        },
        "metallicFactor": 0.0,
        "roughnessFactor": 0.5
      }
    },
    {
      "name": "TextureMaterial_1",
      "pbrMetallicRoughness": {
        "baseColorTexture": {
          "index": 1
        },
        "metallicFactor": 0.0,
        "roughnessFactor": 0.5
      }
    },
    {
      "name": "TextureMaterial_10",
      "pbrMetallicRoughness": {
        "baseColorTexture": {
          "index": 2
        },
        "metallicFactor": 0.0,
        "roughnessFactor": 0.5
      }
    },
    {
      "alphaMode": "BLEND",
      "name": "TextureMaterial_11",
      "pbrMetallicRoughness": {
        "baseColorTexture": {
          "index": 3
        },
        "metallicFactor": 0.0,
        "roughnessFactor": 0.5
      }
    },
    {
      "alphaMode": "BLEND",
      "name": "TextureMaterial_12",
      "pbrMetallicRoughness": {
        "baseColorTexture": {
          "index": 4
        },
        "metallicFactor": 0.0,
        "roughnessFactor": 0.5
      }
    },
    {
      "name": "TextureMaterial_13",
      "pbrMetallicRoughness": {
        "baseColorTexture": {
          "index": 5
        },
        "metallicFactor": 0.0,
        "roughnessFactor": 0.5
      }
    },
    {
      "name": "TextureMaterial_14",
      "pbrMetallicRoughness": {
        "baseColorTexture": {
          "index": 6
        },
        "metallicFactor": 0.0,
        "roughnessFactor": 0.5
      }
    },
    {
      "alphaMode": "BLEND",
      "name": "TextureMaterial_15",
      "pbrMetallicRoughness": {
        "baseColorTexture": {
          "index": 7
        },
        "metallicFactor": 0.0,
        "roughnessFactor": 0.5
      }
    },
    {
      "name": "TextureMaterial_16",
      "pbrMetallicRoughness": {
        "baseColorTexture": {
          "index": 8
        },
        "metallicFactor": 0.0,
        "roughnessFactor": 0.5
      }
    },
    {
      "name": "TextureMaterial_17",
      "pbrMetallicRoughness": {
        "baseColorTexture": {
          "index": 9
        },
        "metallicFactor": 0.0,
        "roughnessFactor": 0.5
      }
    },
    {
      "name": "TextureMaterial_18",
      "pbrMetallicRoughness": {
        "baseColorTexture": {
          "index": 10
        },
        "metallicFactor": 0.0,
        "roughnessFactor": 0.5
      }
    },
    {
      "name": "TextureMaterial_19",
      "pbrMetallicRoughness": {
        "baseColorTexture": {
          "index": 11
        },
        "metallicFactor": 0.0,
        "roughnessFactor": 0.5
      }
    },
    {
      "name": "TextureMaterial_2",
      "pbrMetallicRoughness": {
        "baseColorTexture": {
          "index": 12
        },
        "metallicFactor": 0.0,
        "roughnessFactor": 0.5
      }
    },
    {
      "name": "TextureMaterial_20",
      "pbrMetallicRoughness": {
        "baseColorTexture": {
          "index": 13
        },
        "metallicFactor": 0.0,
        "roughnessFactor": 0.5
      }
    },
    {
      "alphaMode": "BLEND",
      "name": "TextureMaterial_3",
      "pbrMetallicRoughness": {
        "baseColorTexture": {
          "index": 14
        },
        "metallicFactor": 0.0,
        "roughnessFactor": 0.5
      }
    },
    {
      "name": "TextureMaterial_4",
      "pbrMetallicRoughness": {
        "baseColorTexture": {
          "index": 15
        },
        "metallicFactor": 0.0,
        "roughnessFactor": 0.5
      }
    },
    {
      "name": "TextureMaterial_5",
      "pbrMetallicRoughness": {
        "baseColorTexture": {
          "index": 16
        },
        "metallicFactor": 0.0,
        "roughnessFactor": 0.5
      }
    },
    {
      "name": "TextureMaterial_6",
      "pbrMetallicRoughness": {
        "baseColorTexture": {
          "index": 17
        },
        "metallicFactor": 0.0,
        "roughnessFactor": 0.5
      }
    },
    {
      "name": "TextureMaterial_7",
      "pbrMetallicRoughness": {
        "baseColorTexture": {
          "index": 18
        },
        "metallicFactor": 0.0,
        "roughnessFactor": 0.5
      }
    },
    {
      "name": "TextureMaterial_8",
      "pbrMetallicRoughness": {
        "baseColorTexture": {
          "index": 19
        },
        "metallicFactor": 0.0,
        "roughnessFactor": 0.5
      }
    },
    {
      "name": "TextureMaterial_9",
      "pbrMetallicRoughness": {
        "baseColorTexture": {
          "index": 20
        },
        "metallicFactor": 0.0,
        "roughnessFactor": 0.5
      }
    },
    {
      "alphaMode": "BLEND",
      "name": "TextureMaterial_21",
      "pbrMetallicRoughness": {
        "baseColorTexture": {
          "index": 21
        },
        "metallicFactor": 0.0,
        "roughnessFactor": 0.5
      }
    }
  ],
  "meshes": [
    {
      "name": "FrontSide_0",
      "primitives": [
        {
          "attributes": {
            "NORMAL": 1,
            "POSITION": 0,
            "TEXCOORD_0": 2,
            "TEXCOORD_1": 3
          },
          "indices": 4,
          "material": 0,
          "mode": 4
        }
      ]
    },
    {
      "name": "FrontSide_1",
      "primitives": [
        {
          "attributes": {
            "NORMAL": 6,
            "POSITION": 5,
            "TEXCOORD_0": 7,
            "TEXCOORD_1": 8
          },
          "indices": 9,
          "material": 1,
          "mode": 4
        }
      ]
    },
    {
      "name": "FrontSide_2",
      "primitives": [
        {
          "attributes": {
            "NORMAL": 11,
            "POSITION": 10,
            "TEXCOORD_0": 12,
            "TEXCOORD_1": 13
          },
          "indices": 14,
          "material": 2,
          "mode": 4
        }
      ]
    },
    {
      "name": "FrontSide_3",
      "primitives": [
        {
          "attributes": {
            "NORMAL": 16,
            "POSITION": 15,
            "TEXCOORD_0": 17,
            "TEXCOORD_1": 18
          },
          "indices": 19,
          "material": 3,
          "mode": 4
        }
      ]
    },
    {
      "name": "FrontSide_4",
      "primitives": [
        {
          "attributes": {
            "NORMAL": 21,
            "POSITION": 20,
            "TEXCOORD_0": 22,
            "TEXCOORD_1": 23
          },
          "indices": 24,
          "material": 4,
          "mode": 4
        }
      ]
    },
    {
      "name": "FrontSide_5",
      "primitives": [
        {
          "attributes": {
            "NORMAL": 26,
            "POSITION": 25,
            "TEXCOORD_0": 27,
            "TEXCOORD_1": 28
          },
          "indices": 29,
          "material": 5,
          "mode": 4
        }
      ]
    },
    {
      "name": "FrontSide_6",
      "primitives": [
        {
          "attributes": {
            "NORMAL": 31,
            "POSITION": 30,
            "TEXCOORD_0": 32,
            "TEXCOORD_1": 33
          },
          "indices": 34,
          "material": 6,
          "mode": 4
        }
      ]
    },
    {
      "name": "FrontSide_7",
      "primitives": [
        {
          "attributes": {
            "NORMAL": 36,
            "POSITION": 35,
            "TEXCOORD_0": 37,
            "TEXCOORD_1": 38
          },
          "indices": 39,
          "material": 7,
          "mode": 4
        }
      ]
    },
    {
      "name": "FrontSide_8",
      "primitives": [
        {
          "attributes": {
            "NORMAL": 41,
            "POSITION": 40,
            "TEXCOORD_0": 42,
            "TEXCOORD_1": 43
          },
          "indices": 44,
          "material": 8,
          "mode": 4
        }
      ]
    },
    {
      "name": "FrontSide_9",
      "primitives": [
        {
          "attributes": {
            "NORMAL": 46,
            "POSITION": 45,
            "TEXCOORD_0": 47,
            "TEXCOORD_1": 48
          },
          "indices": 49,
          "material": 9,
          "mode": 4
        }
      ]
    },
    {
      "name": "FrontSide_10",
      "primitives": [
        {
          "attributes": {
            "NORMAL": 51,
            "POSITION": 50,
            "TEXCOORD_0": 52,
            "TEXCOORD_1": 53
          },
          "indices": 54,
          "material": 10,
          "mode": 4
        }
      ]
    },
    {
      "name": "FrontSide_11",
      "primitives": [
        {
          "attributes": {
            "NORMAL": 56,
            "POSITION": 55,
            "TEXCOORD_0": 57,
            "TEXCOORD_1": 58
          },
          "indices": 59,
          "material": 11,
          "mode": 4
        }
      ]
    },
    {
      "name": "FrontSide_12",
      "primitives": [
        {
          "attributes": {
            "NORMAL": 61,
            "POSITION": 60,
            "TEXCOORD_0": 62,
            "TEXCOORD_1": 63
          },
          "indices": 64,
          "material": 12,
          "mode": 4
        }
      ]
    },
    {
      "name": "FrontSide_13",
      "primitives": [
        {
          "attributes": {
            "NORMAL": 66,
            "POSITION": 65,
            "TEXCOORD_0": 67,
            "TEXCOORD_1": 68
          },
          "indices": 69,
          "material": 13,
          "mode": 4
        }
      ]
    },
    {
      "name": "FrontSide_14",
      "primitives": [
        {
          "attributes": {
            "NORMAL": 71,
            "POSITION": 70,
            "TEXCOORD_0": 72,
            "TEXCOORD_1": 73
          },
          "indices": 74,
          "material": 14,
          "mode": 4
        }
      ]
    },
    {
      "name": "FrontSide_15",
      "primitives": [
        {
          "attributes": {
            "NORMAL": 76,
            "POSITION": 75,
            "TEXCOORD_0": 77,
            "TEXCOORD_1": 78
          },
          "indices": 79,
          "material": 15,
          "mode": 4
        }
      ]
    },
    {
      "name": "FrontSide_16",
      "primitives": [
        {
          "attributes": {
            "NORMAL": 81,
            "POSITION": 80,
            "TEXCOORD_0": 82,
            "TEXCOORD_1": 83
          },
          "indices": 84,
          "material": 16,
          "mode": 4
        }
      ]
    },
    {
      "name": "FrontSide_17",
      "primitives": [
        {
          "attributes": {
            "NORMAL": 86,
            "POSITION": 85,
            "TEXCOORD_0": 87,
            "TEXCOORD_1": 88
          },
          "indices": 89,
          "material": 17,
          "mode": 4
        }
      ]
    },
    {
      "name": "FrontSide_18",
      "primitives": [
        {
          "attributes": {
            "NORMAL": 91,
            "POSITION": 90,
            "TEXCOORD_0": 92,
            "TEXCOORD_1": 93
          },
          "indices": 94,
          "material": 18,
          "mode": 4
        }
      ]
    },
    {
      "name": "FrontSide_19",
      "primitives": [
        {
          "attributes": {
            "NORMAL": 96,
            "POSITION": 95,
            "TEXCOORD_0": 97,
            "TEXCOORD_1": 98
          },
          "indices": 99,
          "material": 19,
          "mode": 4
        }
      ]
    },
    {
      "name": "FrontSide_20",
      "primitives": [
        {
          "attributes": {
            "NORMAL": 101,
            "POSITION": 100,
            "TEXCOORD_0": 102,
            "TEXCOORD_1": 103
          },
          "indices": 104,
          "material": 20,
          "mode": 4
        }
      ]
    },
    {
      "name": "BackSide_0",
      "primitives": [
        {
          "attributes": {
            "NORMAL": 106,
            "POSITION": 105,
            "TEXCOORD_0": 107,
            "TEXCOORD_1": 108
          },
          "indices": 109,
          "material": 6,
          "mode": 4
        }
      ]
    },
    {
      "name": "BackSide_1",
      "primitives": [
        {
          "attributes": {
            "NORMAL": 111,
            "POSITION": 110,
            "TEXCOORD_0": 112,
            "TEXCOORD_1": 113
          },
          "indices": 114,
          "material": 7,
          "mode": 4
        }
      ]
    },
    {
      "name": "BackSide_2",
      "primitives": [
        {
          "attributes": {
            "NORMAL": 116,
            "POSITION": 115,
            "TEXCOORD_0": 117,
            "TEXCOORD_1": 118
          },
          "indices": 119,
          "material": 21,
          "mode": 4
        }
      ]
    }
  ],
  "nodes": [
    {
      "children": [
        1
      ],
      "matrix": [
        1.0,
        0.0,
        0.0,
        0.0,
        0.0,
        2.220446049250313e-16,
        -1.0,
        0.0,
        0.0,
        1.0,
        2.220446049250313e-16,
        0.0,
        0.0,
        0.0,
        0.0,
        1.0
      ],
      "name": "Sketchfab_model"
    },
    {
      "children": [
        2
      ],
      "matrix": [
        0.009999999776482582,
        0.0,
        0.0,
        0.0,
        0.0,
        0.009999999776482582,
        0.0,
        0.0,
        0.0,
        0.0,
        0.009999999776482582,
        0.0,
        0.0,
        0.0,
        0.0,
        1.0
      ],
      "name": "USDRoot"
    },
    {
      "children": [
        3
      ],
      "name": "model"
    },
    {
      "children": [
        4
      ],
      "name": "Geom"
    },
    {
      "children": [
        5,
        6,
        7,
        8,
        9,
        10,
        11,
        12,
        13,
        14,
        15,
        16,
        17,
        18,
        19,
        20,
        21,
        22,
        23,
        24,
        25,
        26,
        27,
        28
      ],
      "matrix": [
        1.0,
        0.0,
        0.0,
        0.0,
        0.0,
        1.0,
        0.0,
        0.0,
        0.0,
        0.0,
        1.0,
        0.0,
        -1431.6197509765625,
        2168.567626953125,
        0.0,
        1.0
      ],
      "name": "skp6B4E__USDInstance_1"
    },
    {
      "mesh": 0,
      "name": "FrontSide_0"
    },
    {
      "mesh": 1,
      "name": "FrontSide_1"
    },
    {
      "mesh": 2,
      "name": "FrontSide_2"
    },
    {
      "mesh": 3,
      "name": "FrontSide_3"
    },
    {
      "mesh": 4,
      "name": "FrontSide_4"
    },
    {
      "mesh": 5,
      "name": "FrontSide_5"
    },
    {
      "mesh": 6,
      "name": "FrontSide_6"
    },
    {
      "mesh": 7,
      "name": "FrontSide_7"
    },
    {
      "mesh": 8,
      "name": "FrontSide_8"
    },
    {
      "mesh": 9,
      "name": "FrontSide_9"
    },
    {
      "mesh": 10,
      "name": "FrontSide_10"
    },
    {
      "mesh": 11,
      "name": "FrontSide_11"
    },
    {
      "mesh": 12,
      "name": "FrontSide_12"
    },
    {
      "mesh": 13,
      "name": "FrontSide_13"
    },
    {
      "mesh": 14,
      "name": "FrontSide_14"
    },
    {
      "mesh": 15,
      "name": "FrontSide_15"
    },
    {
      "mesh": 16,
      "name": "FrontSide_16"
    },
    {
      "mesh": 17,
      "name": "FrontSide_17"
    },
    {
      "mesh": 18,
      "name": "FrontSide_18"
    },
    {
      "mesh": 19,
      "name": "FrontSide_19"
    },
    {
      "mesh": 20,
      "name": "FrontSide_20"
    },
    {
      "mesh": 21,
      "name": "BackSide_0"
    },
    {
      "mesh": 22,
      "name": "BackSide_1"
    },
    {
      "mesh": 23,
      "name": "BackSide_2"
    }
  ],
  "samplers": [
    {
      "magFilter": 9729,
      "minFilter": 9987,
      "wrapS": 10497,
      "wrapT": 10497
    }
  ],
  "scene": 0,
  "scenes": [
    {
      "name": "Sketchfab_Scene",
      "nodes": [
        0
      ]
    }
  ],
  "textures": [
    {
      "sampler": 0,
      "source": 0
    },
    {
      "sampler": 0,
      "source": 1
    },
    {
      "sampler": 0,
      "source": 2
    },
    {
      "sampler": 0,
      "source": 3
    },
    {
      "sampler": 0,
      "source": 4
    },
    {
      "sampler": 0,
      "source": 5
    },
    {
      "sampler": 0,
      "source": 6
    },
    {
      "sampler": 0,
      "source": 7
    },
    {
      "sampler": 0,
      "source": 8
    },
    {
      "sampler": 0,
      "source": 9
    },
    {
      "sampler": 0,
      "source": 10
    },
    {
      "sampler": 0,
      "source": 11
    },
    {
      "sampler": 0,
      "source": 12
    },
    {
      "sampler": 0,
      "source": 13
    },
    {
      "sampler": 0,
      "source": 14
    },
    {
      "sampler": 0,
      "source": 15
    },
    {
      "sampler": 0,
      "source": 16
    },
    {
      "sampler": 0,
      "source": 17
    },
    {
      "sampler": 0,
      "source": 18
    },
    {
      "sampler": 0,
      "source": 19
    },
    {
      "sampler": 0,
      "source": 20
    },
    {
      "sampler": 0,
      "source": 21
    }
  ]
}
